Coordinates
version=1
nRows=20
nColumns=38
inDegrees=no

Units are S.I. units (second, meters, Newtons, ...)
If the header above contains a line with 'inDegrees', this indicates whether rotational values are in degrees (yes) or radians (no).

endheader
time	pelvis_tilt	pelvis_list	pelvis_rotation	pelvis_tx	pelvis_ty	pelvis_tz	hip_flexion_r	hip_adduction_r	hip_rotation_r	knee_angle_r	ankle_angle_r	subtalar_angle_r	mtp_angle_r	hip_flexion_l	hip_adduction_l	hip_rotation_l	knee_angle_l	ankle_angle_l	subtalar_angle_l	mtp_angle_l	lumbar_extension	lumbar_bending	lumbar_rotation	arm_flex_r	arm_add_r	arm_rot_r	elbow_flex_r	pro_sup_r	wrist_flex_r	wrist_dev_r	arm_flex_l	arm_add_l	arm_rot_l	elbow_flex_l	pro_sup_l	wrist_flex_l	wrist_dev_l
1.8	-2.45485	1.42532	-2.39085	0.656269	1.55807	0.929344	-0.337749	-0.186801	-0.21898	0.440048	0.302243	0	0	0.377744	0.0473279	-0.267457	0.340082	0.174551	0	0	-0.144216	-0.100342	0.113429	0.0530558	-0.181982	0.146593	0.508344	1.21789	0	0	-0.318815	-0.194038	0.280005	0.625575	0.830529	0	0
1.81	-2.42556	1.42658	-2.4307	0.655526	1.572	0.928133	-0.324786	-0.201677	-0.210768	0.478779	0.290333	0	0	0.380643	0.0472941	-0.274455	0.361619	0.164085	0	0	-0.132169	-0.10419	0.125541	0.0423101	-0.182051	0.145112	0.505055	1.22525	0	0	-0.330985	-0.194051	0.277128	0.628137	0.827117	0	0
1.82	-2.38461	1.42606	-2.47912	0.654405	1.58572	0.927187	-0.308443	-0.218815	-0.204498	0.522878	0.273455	0	0	0.384159	0.049994	-0.281761	0.381273	0.143308	0	0	-0.120945	-0.110356	0.133718	0.0325993	-0.181096	0.142706	0.500457	1.23243	0	0	-0.342699	-0.194958	0.274457	0.631761	0.822643	0	0
1.83	-2.3006	1.42952	-2.56558	0.652808	1.59888	0.925844	-0.276684	-0.236473	-0.202162	0.580263	0.251161	0	0	0.404656	0.0502439	-0.290341	0.418518	0.130034	0	0	-0.102858	-0.116519	0.137973	0.0225957	-0.17733	0.128744	0.493677	1.25689	0	0	-0.354482	-0.200999	0.286693	0.642151	0.782374	0	0
1.84	-2.29058	1.43625	-2.57422	0.651234	1.61252	0.924986	-0.256037	-0.238881	-0.193359	0.628759	0.219426	0	0	0.439018	0.017882	-0.351166	0.511061	0.143104	0	0	-0.0927261	-0.112144	0.137622	0.0106094	-0.177836	0.128309	0.494266	1.25167	0	0	-0.365732	-0.203058	0.287254	0.648322	0.780204	0	0
1.85	-2.23447	1.43393	-2.6253	0.64938	1.62538	0.92508	-0.22932	-0.25342	-0.189844	0.686477	0.181279	0	0	0.448458	0.0238272	-0.346415	0.542459	0.141765	0	0	-0.0848885	-0.120479	0.133721	0.00149403	-0.172817	0.117336	0.489739	1.25852	0	0	-0.372315	-0.209028	0.293041	0.653137	0.773759	0	0
1.86	-2.17865	1.43295	-2.67415	0.647522	1.6382	0.925216	-0.198173	-0.265023	-0.184804	0.748117	0.137717	0	0	0.457312	0.0292682	-0.34058	0.570782	0.139205	0	0	-0.0760308	-0.127308	0.128525	-0.00885324	-0.167782	0.106118	0.486563	1.26372	0	0	-0.378228	-0.217891	0.307174	0.660181	0.75679	0	0
1.87	-2.13296	1.43217	-2.71186	0.645691	1.65093	0.925522	-0.165553	-0.273727	-0.177494	0.810872	0.0889873	0	0	0.461425	0.0347525	-0.335806	0.591643	0.132335	0	0	-0.0684015	-0.132962	0.122412	-0.0201169	-0.163452	0.0977401	0.485739	1.26154	0	0	-0.382928	-0.227621	0.323243	0.667363	0.737872	0	0
1.88	-2.09354	1.43123	-2.74284	0.64384	1.66348	0.925887	-0.131417	-0.280824	-0.169106	0.873959	0.0363277	0	0	0.461043	0.040633	-0.333614	0.60555	0.124631	0	0	-0.0620084	-0.138101	0.115637	-0.0317256	-0.159797	0.0900515	0.486881	1.25794	0	0	-0.386907	-0.236412	0.334593	0.674398	0.724398	0	0
1.89	-2.05977	1.42968	-2.76765	0.641916	1.67578	0.926291	-0.0965599	-0.287591	-0.161327	0.936324	-0.0187317	0	0	0.456334	0.0474824	-0.333922	0.613626	0.120016	0	0	-0.0571994	-0.143161	0.108504	-0.0436245	-0.156789	0.0827306	0.489851	1.25273	0	0	-0.390049	-0.245069	0.344022	0.682351	0.711914	0	0
1.9	-2.03957	1.42721	-2.77891	0.639962	1.68777	0.926855	-0.0630997	-0.294068	-0.153812	0.99636	-0.0736902	0	0	0.446445	0.0551609	-0.33597	0.61666	0.119381	0	0	-0.0552813	-0.147965	0.101151	-0.0545002	-0.154548	0.0774257	0.49258	1.24759	0	0	-0.391439	-0.25235	0.349516	0.688449	0.704819	0	0
1.91	-2.02642	1.42385	-2.7826	0.637952	1.69953	0.927559	-0.0311769	-0.300637	-0.147269	1.05289	-0.130382	0	0	0.433332	0.0644792	-0.337205	0.616018	0.120977	0	0	-0.0550283	-0.152959	0.0933574	-0.0647139	-0.152683	0.072724	0.495066	1.24163	0	0	-0.391539	-0.259627	0.354535	0.694425	0.698845	0	0
1.92	-2.01862	1.41973	-2.77974	0.635846	1.71115	0.92846	-0.00158084	-0.307552	-0.142851	1.1046	-0.189277	0	0	0.418015	0.0760323	-0.334649	0.612616	0.122405	0	0	-0.0559003	-0.158297	0.0838541	-0.075346	-0.154791	0.0910155	0.501737	1.1846	0	0	-0.390855	-0.26792	0.362968	0.70141	0.683916	0	0
1.93	-2.02158	1.41567	-2.76658	0.633856	1.72255	0.9297	0.0250766	-0.312644	-0.138296	1.15053	-0.242914	0	0	0.400861	0.0874195	-0.329198	0.608346	0.122729	0	0	-0.0589616	-0.162891	0.0745556	-0.082088	-0.15246	0.0853274	0.498992	1.18846	0	0	-0.387651	-0.272967	0.364232	0.70231	0.68097	0	0
1.94	-2.03151	1.41162	-2.74694	0.631999	1.73377	0.931238	0.0498711	-0.316152	-0.133265	1.19269	-0.281973	0	0	0.382357	0.0990274	-0.319993	0.603096	0.122638	0	0	-0.0633597	-0.166995	0.0653681	-0.0873807	-0.150054	0.081013	0.494112	1.19139	0	0	-0.383081	-0.277602	0.365655	0.701771	0.67842	0	0
1.95	-2.04455	1.40779	-2.72388	0.630206	1.74489	0.933028	0.0735932	-0.318906	-0.129628	1.23267	-0.294641	0	0	0.362555	0.111112	-0.306457	0.596348	0.123762	0	0	-0.068242	-0.170492	0.0553632	-0.0909379	-0.146968	0.0736093	0.485255	1.20897	0	0	-0.377283	-0.279654	0.360996	0.696072	0.6949	0	0
1.96	-2.06541	1.40485	-2.69341	0.628553	1.75595	0.934986	0.0955736	-0.322161	-0.130551	1.26899	-0.285978	0	0	0.34142	0.120685	-0.293261	0.590257	0.127454	0	0	-0.073613	-0.172275	0.0456882	-0.0958497	-0.146025	0.0759271	0.480543	1.20917	0	0	-0.371325	-0.282365	0.358907	0.692765	0.699335	0	0
1.97	-2.09052	1.40336	-2.65869	0.626969	1.76696	0.937103	0.115804	-0.321886	-0.131528	1.29923	-0.264151	0	0	0.31935	0.127663	-0.280003	0.583223	0.131329	0	0	-0.0785947	-0.171919	0.0360645	-0.101276	-0.145562	0.0792692	0.476691	1.20833	0	0	-0.365018	-0.284017	0.355061	0.689171	0.703452	0	0
1.98	-2.11652	1.4031	-2.62333	0.625467	1.77791	0.939252	0.135616	-0.319693	-0.13334	1.32406	-0.237748	0	0	0.297064	0.132243	-0.26785	0.575075	0.13472	0	0	-0.0828525	-0.170001	0.0270248	-0.10713	-0.145854	0.0846266	0.473276	1.20682	0	0	-0.358711	-0.28493	0.349899	0.686241	0.706441	0	0
1.99	-2.14118	1.4036	-2.59038	0.624067	1.78873	0.941365	0.156227	-0.31783	-0.136432	1.34413	-0.213463	0	0	0.275084	0.134991	-0.257887	0.565981	0.137947	0	0	-0.0862123	-0.167262	0.0192066	-0.112016	-0.146874	0.0929578	0.46804	1.20444	0	0	-0.35204	-0.286628	0.347794	0.68482	0.708043	0	0
